<svg width="341" height="182" viewBox="0 0 341 182" fill="none" xmlns="http://www.w3.org/2000/svg">
<path d="M93.1835 0.150408C92.8364 0.199995 91.3488 0.398344 89.8364 0.621487C84.9768 1.29091 79.9189 2.75374 75.2577 4.83641C73.175 5.77856 68.3403 8.43148 68.4643 8.58025C68.5138 8.60504 69.456 8.25793 70.5717 7.78685C77.7371 4.76202 87.0843 3.2992 95.3406 3.91904C104.167 4.58847 109.597 5.70418 128.143 10.7125C139.399 13.7621 146.589 15.3241 153.482 16.2415C157.573 16.7869 168.358 16.9853 172.201 16.5886C179.589 15.8448 186.482 14.1588 193.375 11.4315C197.094 9.9439 204.457 6.27444 204.209 6.0265C204.16 5.97691 203.044 6.39841 201.73 6.91907C194.094 10.0679 186.482 11.2828 175.771 11.0596C166.126 10.8613 159.829 9.96869 143.515 6.49758C139.349 5.6298 133.944 4.4645 131.49 3.94384C117.283 0.943804 109.523 -0.0479431 100.002 0.00164413C96.605 0.0264378 93.5306 0.0760269 93.1835 0.150408Z" fill="url(#paint0_linear_24_183)"/>
<path d="M47.9841 6.64633C46.9428 9.22487 45.9758 12.8447 45.5543 15.6712C45.2072 17.977 45.1824 24.7457 45.5295 25.8862C45.7031 26.5308 45.7527 26.4069 45.9014 24.8449C46.2485 21.2994 48.3808 12.2249 49.0254 11.5555C49.4221 11.1588 51.7279 16.0927 52.4965 18.9936L52.7693 20.0349L55.8189 19.8861C61.7446 19.6382 65.4388 20.9027 75.3315 26.5804C79.8191 29.1838 84.7779 31.2664 87.6043 31.8119C88.3234 31.9358 88.3234 31.9358 87.7283 31.6879C84.7035 30.3739 81.9266 28.8119 78.6042 26.5556C70.1 20.8035 69.1331 20.2085 65.9099 18.8944C63.257 17.8035 60.7528 17.3076 57.4801 17.1836L54.6288 17.1092L54.4056 16.415C53.2155 12.6216 49.5461 4.4397 49.0502 4.4397C48.9262 4.4397 48.4552 5.43144 47.9841 6.64633Z" fill="url(#paint1_linear_24_183)"/>
<path d="M204.631 5.67942C204.557 5.82819 204.656 5.85298 204.854 5.7786C205.301 5.60504 205.375 5.43149 205.028 5.43149C204.879 5.43149 204.706 5.53066 204.631 5.67942Z" fill="black"/>
<path d="M39.0345 6.81992C38.9601 7.04306 38.8857 8.48109 38.8857 10.0183C38.8857 14.5307 39.8527 18.5969 41.8114 22.4151C42.6048 23.9771 43.7453 25.6631 43.5222 24.9937C41.9106 19.9853 41.2163 16.539 40.9436 12.4233L40.7949 9.89433H41.3899C41.7122 9.89433 42.4808 10.1175 43.0759 10.3902C43.6709 10.6629 44.2164 10.8613 44.2412 10.8117C44.5635 10.4894 39.9767 6.42322 39.3072 6.42322C39.2329 6.42322 39.1089 6.59677 39.0345 6.81992Z" fill="url(#paint2_linear_24_183)"/>
<path d="M62.8364 13.3903C61.6215 13.5143 60.5802 13.663 60.5306 13.7126C60.481 13.7622 61.2496 13.8614 62.2414 13.9605C73.2745 15.0019 83.911 19.4895 93.6797 27.2499C97.5227 30.2995 98.9607 31.564 106.324 38.4319C112.845 44.5063 116.242 47.4568 120.333 50.556C134.366 61.2172 149.193 66.3743 168.78 67.4156C171.433 67.5644 173.639 67.6388 173.664 67.5892C173.714 67.5396 172.176 67.3165 170.218 67.0685C153.408 65.0107 138.879 59.3825 126.531 50.0849C121.3 46.1675 118.994 44.1096 109.176 34.5393C99.7293 25.3408 97.1508 23.1342 92.1921 19.9358C83.911 14.5556 73.8944 12.3242 62.8364 13.3903Z" fill="url(#paint3_linear_24_183)"/>
<path d="M146.614 22.8118C138.481 23.8036 130.795 26.6548 124.002 31.2169C122.316 32.3326 120.903 33.3243 120.828 33.4483C120.754 33.5723 122.018 33.0764 123.655 32.3326C128.589 30.126 133.324 28.7375 139.052 27.8449C141.308 27.473 143.341 27.3739 148.845 27.3987C157.994 27.3987 161.539 27.8449 177.978 31.0929C192.879 34.0434 197.664 34.688 204.606 34.688C210.705 34.688 215.689 33.8946 220.176 32.2086C223.623 30.9194 228.582 27.9193 231.284 25.5143L232.152 24.7457L230.788 25.5143C222.953 29.9772 214.35 31.6384 204.011 30.721C198.507 30.2251 193.746 29.3574 182.564 26.8532C167.292 23.4317 163.077 22.787 154.672 22.6631C151.324 22.6135 147.705 22.6879 146.614 22.8118Z" fill="url(#paint4_linear_24_183)"/>
<path d="M38.3396 25.9358C38.5132 26.0102 38.7363 25.9854 38.8107 25.911C38.9099 25.8366 38.7611 25.7622 38.4884 25.787C38.2156 25.787 38.1413 25.8614 38.3396 25.9358Z" fill="black"/>
<path d="M33.8025 26.5061C32.5876 26.7293 30.133 27.2251 28.3479 27.597C26.5876 27.9689 23.5131 28.3904 21.5296 28.564L17.9346 28.8863L19.6701 29.4566C23.1908 30.5723 26.2404 30.3739 30.4554 28.688C31.4719 28.2665 33.6042 27.4979 35.1662 26.9772C37.5216 26.2086 37.8439 26.035 37.0257 26.035C36.4802 26.0598 35.0422 26.2582 33.8025 26.5061Z" fill="url(#paint5_linear_24_183)"/>
<path d="M35.7609 27.8448C35.3642 28.0184 34.0254 28.8366 32.7857 29.6052C29.4633 31.787 27.8022 32.7044 25.7443 33.4978L23.8848 34.2168L25.5955 34.0928C27.9013 33.9193 29.7113 33.0267 32.9344 30.4482C34.3725 29.3077 35.8353 28.1671 36.1576 27.944C36.9014 27.4481 36.7775 27.3985 35.7609 27.8448Z" fill="url(#paint6_linear_24_183)"/>
<path d="M41.3643 28.3408C39.1081 29.2582 37.5957 30.1012 35.9097 31.3657C32.4634 33.969 30.0336 36.8451 25.8187 43.3162C24.2567 45.7212 22.3724 48.5477 21.6286 49.6138C16.7195 56.6304 9.80203 63.6718 3.72759 67.8123C2.68626 68.5313 1.47137 69.4735 1.02508 69.8702C-1.00799 71.8041 0.0333384 74.7545 3.7028 77.457C5.06645 78.4488 5.93423 78.8703 10.2483 80.5315C11.3392 80.953 12.8269 81.7463 13.5459 82.2918C14.7856 83.234 14.8351 83.2588 14.488 82.6141C13.7194 81.1265 12.1574 79.8372 9.45492 78.4736C7.07473 77.2587 4.84331 75.5975 3.92594 74.333C2.66146 72.5727 2.85981 72.0768 5.43835 70.2669C9.62848 67.3412 15.2318 62.209 19.2732 57.6221C23.7857 52.4898 25.8931 49.4402 29.8353 42.374C32.5378 37.5393 33.2568 36.3988 34.8436 34.5145C37.1742 31.7624 39.4304 29.8532 41.8106 28.6384C42.5296 28.2912 43.0999 27.9193 43.0999 27.8698C43.0999 27.6714 42.8272 27.7458 41.3643 28.3408Z" fill="url(#paint7_linear_24_183)"/>
<path d="M160.747 43.2667C154.127 43.7874 148.821 44.8535 142.523 46.8866C139.746 47.7791 137.738 48.5725 139.176 48.2254C143.54 47.1345 148.821 46.5642 155.937 46.4155C163.152 46.2667 167.094 46.4651 174.011 47.3576C184.152 48.6469 191.119 50.1345 214.549 55.9858C230.07 59.8536 236.095 61.2173 242.938 62.457C270.905 67.4653 290.641 63.895 306.88 50.9031C311.17 47.4568 311.864 46.6634 309.137 48.3246C306.211 50.0849 299.095 53.5561 296.12 54.6718C280.153 60.5975 264.235 61.3908 241.946 57.3495C235.499 56.1842 230.466 55.0437 215.417 51.2998C195.582 46.3659 188.119 44.8287 178.102 43.713C175.028 43.3659 163.35 43.0683 160.747 43.2667Z" fill="url(#paint8_linear_24_183)"/>
<path d="M64.1249 56.6304C62.8605 62.2585 59.2158 66.1511 53.8852 67.5148C51.8769 68.0602 49.1744 68.3578 43.7694 68.6553C35.1908 69.1511 33.356 70.0189 27.6287 76.3661C24.9758 79.3165 22.2485 81.5728 19.3972 83.2091C17.6617 84.2257 17.5129 84.4984 18.9757 84.0273C21.8766 83.0852 25.3477 80.9281 28.8188 77.9281C32.6122 74.6058 34.323 73.3413 36.0337 72.4735C37.9924 71.5065 39.2321 71.3082 46.3231 70.8867C50.9347 70.614 54.2571 70.0189 56.4885 69.1264C59.6373 67.8371 61.9431 65.7544 63.2324 63.0271C64.0754 61.2668 64.7448 57.87 64.6208 55.9857L64.5464 54.7212L64.1249 56.6304Z" fill="url(#paint9_linear_24_183)"/>
<path d="M61.6955 70.6388C61.8938 70.7628 62.1913 70.8867 62.3153 70.8867C62.4641 70.8867 62.3897 70.7628 62.1913 70.6388C61.993 70.5148 61.7203 70.3908 61.5715 70.3908C61.4475 70.3908 61.4971 70.5148 61.6955 70.6388Z" fill="black"/>
<path d="M64.7702 72.2007C72.3818 76.6884 77.5389 83.8537 79.4728 92.7051C79.9191 94.7381 80.0678 101.209 79.7207 103.614C79.5472 104.829 79.4232 105.052 78.5058 105.697C75.3322 107.953 70.6958 113.185 68.1421 117.375C67.2495 118.838 65.1669 123.028 65.1669 123.35C65.1669 123.424 65.9107 122.383 66.8032 121.044C70.6958 115.342 75.9769 109.961 81.5307 106.044C86.4646 102.573 91.3242 100.168 97.7705 98.0109C100.473 97.1183 100.498 97.044 97.8201 97.4406C93.2581 98.1101 87.8282 99.9448 84.2332 102.003C83.6381 102.325 83.0431 102.623 82.8943 102.623C82.7456 102.623 82.6216 101.457 82.5968 99.6969C82.448 88.1678 75.9025 77.7049 65.39 72.1263C62.3404 70.5147 61.9685 70.5395 64.7702 72.2007Z" fill="url(#paint10_linear_24_183)"/>
<path d="M114.754 74.0851C115.076 74.3578 116.762 75.3991 118.473 76.4157C136.894 87.4488 154.597 90.2009 184.92 86.7546C186.085 86.6307 190.374 86.1348 194.465 85.6389C206.688 84.2257 208.374 84.0521 213.804 83.5314C223.87 82.5893 228.061 82.4157 239.838 82.4157C251.317 82.4157 254.689 82.5645 262.896 83.4323C282.929 85.5397 302.541 90.3249 323.64 98.2093C329.343 100.342 337.475 103.639 339.458 104.656C340.004 104.928 340.475 105.077 340.525 105.028C340.599 104.978 338.938 103.912 336.855 102.697C311.739 87.9447 287.863 79.4653 262.524 76.3661C254.391 75.3743 251.515 75.2256 239.961 75.2256C228.631 75.2256 226.474 75.3247 215.912 76.3661C209.465 76.9859 191.911 79.1678 182.316 80.5562C175.647 81.4984 167.118 82.2422 160.002 82.5149C142.969 83.1595 129.506 80.7794 116.985 74.9528C115.423 74.209 114.406 73.8371 114.754 74.0851Z" fill="url(#paint11_linear_24_183)"/>
<path d="M35.712 96.6721C34.1004 97.8374 32.8855 99.697 30.4805 104.606C29.2656 107.135 27.3069 110.854 26.1664 112.912C25.0259 114.945 22.3978 119.978 20.3151 124.069C12.9018 138.549 11.6869 140.73 8.76129 144.846C7.62078 146.433 6.52986 148.268 6.30672 148.912C5.63729 150.846 5.83564 153.698 6.87697 157.615L7.17449 158.656L11.6869 156.4C16.72 153.871 17.9349 153.028 18.7283 151.417C19.373 150.152 19.4473 149.185 19.1746 145.392C19.0011 142.664 19.0011 142.664 19.9184 140.061C22.4474 132.896 28.1995 123.003 35.2409 113.78C37.5219 110.805 36.5302 111.548 33.4558 115.143C29.7863 119.433 26.9598 123.325 23.8606 128.458C22.1003 131.309 18.4308 138.648 17.1663 141.797C16.2986 143.978 16.2242 144.301 16.2738 146.458C16.3233 148.987 15.9019 150.276 14.7861 150.97C12.5795 152.334 9.75303 153.673 9.60427 153.4C9.5051 153.251 9.35633 152.458 9.25716 151.689C9.03402 149.755 9.55468 148.045 11.1415 145.615C13.125 142.59 14.4886 140.036 20.5631 127.912C32.8359 103.54 33.902 101.482 35.3649 99.8705C37.4971 97.4903 39.0839 97.5647 44.4146 100.218C48.6543 102.35 52.8692 103.837 57.1337 104.73C60.9519 105.523 65.5635 105.945 67.8941 105.697L69.7537 105.499L67.1503 105.176C57.6791 104.011 49.1253 101.408 43.7203 98.0606C41.1666 96.4738 39.7038 95.9283 38.0426 95.9283C36.9765 95.9283 36.5302 96.0771 35.712 96.6721Z" fill="url(#paint12_linear_24_183)"/>
<path d="M113.638 103.515C103.274 104.309 96.8032 107.284 90.58 114.052C88.9932 115.788 88.2493 116.656 86.1667 119.16C81.6542 124.59 77.9352 126.548 71.464 126.846C66.4557 127.094 60.2821 126.127 51.0837 123.697C48.2076 122.953 46.8192 122.705 45.3811 122.705C41.1662 122.705 38.5877 125.259 38.2158 129.772L38.0918 131.259L38.9596 129.499C39.9017 127.59 41.3398 126.127 42.8026 125.656C44.2902 125.16 47.6126 125.507 50.9101 126.499C59.7367 129.127 64.497 129.995 70.3731 130.02C74.1666 130.02 74.9847 129.945 76.9434 129.425C81.9766 128.11 84.9766 125.879 90.5304 119.358C95.9602 112.986 99.4065 109.838 103.274 107.656C106.522 105.846 109.225 104.978 115.498 103.664L116.613 103.416L115.622 103.441C115.076 103.441 114.184 103.49 113.638 103.515Z" fill="url(#paint13_linear_24_183)"/>
<path d="M39.5546 108.796C41.8852 109.912 43.4224 110.978 46.9431 113.879C51.0341 117.276 54.6292 119.656 58.1747 121.391C59.7367 122.135 61.0259 122.706 61.0755 122.656C61.1251 122.606 60.3069 121.987 59.2656 121.292C58.2243 120.598 56.0176 118.937 54.3812 117.623C49.72 113.854 47.5878 112.267 45.4803 111.003C43.4968 109.813 40.4472 108.524 38.8852 108.201C38.191 108.077 38.315 108.176 39.5546 108.796Z" fill="url(#paint14_linear_24_183)"/>
<path d="M38.3887 134.581C38.3887 135.127 40.2978 140.21 41.5623 143.036C42.3309 144.747 45.9507 152.111 49.6202 159.4L56.2897 172.64L60.4054 174.177C66.6038 176.458 70.6204 178.144 75.6287 180.574L77.5378 181.516L81.5792 179.855C83.8106 178.937 85.8685 178.045 86.1412 177.896C86.6371 177.648 86.2652 177.276 81.48 173.284C73.3973 166.541 73.2981 166.491 71.6122 168.326C70.4717 169.565 69.7774 169.59 67.6204 168.524C65.6369 167.532 62.0418 164.012 60.3311 161.383C57.579 157.144 55.1244 151.689 52.9425 144.896C52.3475 142.987 51.7772 141.201 51.7029 140.929C51.6037 140.458 51.5789 140.482 51.5541 140.978C51.5541 141.276 51.8268 142.937 52.1739 144.648C54.6285 156.772 59.1658 165.102 65.6121 169.342C68.3642 171.152 69.6783 171.4 71.6122 170.532C73.4717 169.689 73.5213 169.714 79.3726 174.276C80.6866 175.293 81.7528 176.21 81.7776 176.309C81.7776 176.408 80.8106 176.979 79.6205 177.574L77.4883 178.665L74.2403 177.177C70.0006 175.268 63.7774 172.937 60.2319 171.97L57.4054 171.177L56.5128 169.193C54.7277 165.177 50.3888 156.623 46.645 149.73C44.5127 145.838 42.7028 142.54 42.6036 142.416C42.5044 142.268 41.5127 140.408 40.397 138.276C39.306 136.119 38.3887 134.458 38.3887 134.581Z" fill="url(#paint15_linear_24_183)"/>
<path d="M55.868 138.549C59.3391 139.739 62.1408 140.929 69.3805 144.326C84.2815 151.317 90.4799 153.772 97.0255 155.309C107.761 157.813 114.852 155.879 119.042 149.235L119.588 148.392L118.224 149.483C116.662 150.698 114.083 151.987 111.902 152.582C109.844 153.127 104.984 153.326 102.232 152.979C96.8271 152.26 89.6865 150.078 79.0253 145.888C66.6532 141.003 61.7689 139.317 56.7358 138.202C52.8928 137.359 52.6696 137.433 55.868 138.549Z" fill="url(#paint16_linear_24_183)"/>
<path d="M51.3066 139.962C51.3066 140.235 51.381 140.309 51.4554 140.111C51.5298 139.937 51.505 139.714 51.4306 139.64C51.3562 139.54 51.2818 139.689 51.3066 139.962Z" fill="black"/>
<defs>
<linearGradient id="paint0_linear_24_183" x1="81.9024" y1="8.46869" x2="189.29" y2="-11.8931" gradientUnits="userSpaceOnUse">
<stop stop-color="#710505"/>
<stop offset="0.196186" stop-color="#F80404"/>
<stop offset="0.414015" stop-color="#A02C2C"/>
<stop offset="0.552083" stop-color="#EB4141"/>
<stop offset="0.623958" stop-color="#A71D1D"/>
<stop offset="0.795833" stop-color="#F60909"/>
<stop offset="0.858333" stop-color="#F60909"/>
<stop offset="1" stop-color="#750707"/>
</linearGradient>
<linearGradient id="paint1_linear_24_183" x1="79.7364" y1="31.8025" x2="44.261" y2="18.3194" gradientUnits="userSpaceOnUse">
<stop stop-color="#BBB9B0"/>
<stop offset="0.259375" stop-color="#62605D"/>
<stop offset="0.420833" stop-color="#C1C0BA"/>
<stop offset="0.69558" stop-color="#62605D"/>
<stop offset="1" stop-color="#BBB9B0"/>
</linearGradient>
<linearGradient id="paint2_linear_24_183" x1="43.2021" y1="25.0825" x2="38.1406" y2="24.7291" gradientUnits="userSpaceOnUse">
<stop stop-color="#BBB9B0"/>
<stop offset="0.259375" stop-color="#62605D"/>
<stop offset="0.420833" stop-color="#C1C0BA"/>
<stop offset="0.69558" stop-color="#62605D"/>
<stop offset="1" stop-color="#BBB9B0"/>
</linearGradient>
<linearGradient id="paint3_linear_24_183" x1="170.323" y1="67.6016" x2="67.0265" y2="13.1176" gradientUnits="userSpaceOnUse">
<stop offset="0.092708" stop-color="#15229B"/>
<stop offset="0.327083" stop-color="#191C3F"/>
<stop offset="0.525" stop-color="#2D39A7"/>
<stop offset="0.676041" stop-color="#151B52"/>
<stop offset="0.952083" stop-color="#2032D7"/>
</linearGradient>
<linearGradient id="paint4_linear_24_183" x1="124.392" y1="28.7375" x2="232.152" y2="13.7684" gradientUnits="userSpaceOnUse">
<stop stop-color="#605C02"/>
<stop offset="0.2125" stop-color="#EAE10B"/>
<stop offset="0.357995" stop-color="#959018"/>
<stop offset="0.472916" stop-color="#F1EA51"/>
<stop offset="0.613541" stop-color="#9D9813"/>
<stop offset="0.707291" stop-color="#EAE10B"/>
<stop offset="0.927129" stop-color="#B0A912"/>
</linearGradient>
<linearGradient id="paint5_linear_24_183" x1="33.6013" y1="30.1407" x2="25.6666" y2="21.0017" gradientUnits="userSpaceOnUse">
<stop stop-color="#BBB9B0"/>
<stop offset="0.259375" stop-color="#62605D"/>
<stop offset="0.420833" stop-color="#C1C0BA"/>
<stop offset="0.69558" stop-color="#62605D"/>
<stop offset="1" stop-color="#BBB9B0"/>
</linearGradient>
<linearGradient id="paint6_linear_24_183" x1="34.1292" y1="34.1947" x2="24.2007" y2="29.5821" gradientUnits="userSpaceOnUse">
<stop stop-color="#BBB9B0"/>
<stop offset="0.259375" stop-color="#62605D"/>
<stop offset="0.420833" stop-color="#C1C0BA"/>
<stop offset="0.69558" stop-color="#62605D"/>
<stop offset="1" stop-color="#BBB9B0"/>
</linearGradient>
<linearGradient id="paint7_linear_24_183" x1="34.6327" y1="82.8724" x2="-4.75873" y2="75.3993" gradientUnits="userSpaceOnUse">
<stop stop-color="#BBB9B0"/>
<stop offset="0.259375" stop-color="#62605D"/>
<stop offset="0.420833" stop-color="#C1C0BA"/>
<stop offset="0.69558" stop-color="#62605D"/>
<stop offset="1" stop-color="#BBB9B0"/>
</linearGradient>
<linearGradient id="paint8_linear_24_183" x1="144.662" y1="56.3515" x2="296.957" y2="17.3015" gradientUnits="userSpaceOnUse">
<stop stop-color="#20291E"/>
<stop offset="0.196875" stop-color="#2FEB00"/>
<stop offset="0.381748" stop-color="#42613B"/>
<stop offset="0.478125" stop-color="#61D145"/>
<stop offset="0.594945" stop-color="#3A6F2D"/>
<stop offset="0.802083" stop-color="#32D40A"/>
<stop offset="1" stop-color="#0E4700"/>
</linearGradient>
<linearGradient id="paint9_linear_24_183" x1="55.4694" y1="84.1535" x2="16.981" y2="69.355" gradientUnits="userSpaceOnUse">
<stop stop-color="#BBB9B0"/>
<stop offset="0.259375" stop-color="#62605D"/>
<stop offset="0.420833" stop-color="#C1C0BA"/>
<stop offset="0.69558" stop-color="#62605D"/>
<stop offset="1" stop-color="#BBB9B0"/>
</linearGradient>
<linearGradient id="paint10_linear_24_183" x1="92.5554" y1="123.18" x2="58.5754" y2="117.353" gradientUnits="userSpaceOnUse">
<stop stop-color="#BBB9B0"/>
<stop offset="0.259375" stop-color="#62605D"/>
<stop offset="0.420833" stop-color="#C1C0BA"/>
<stop offset="0.69558" stop-color="#62605D"/>
<stop offset="1" stop-color="#BBB9B0"/>
</linearGradient>
<linearGradient id="paint11_linear_24_183" x1="296.159" y1="104.934" x2="244.471" y2="13.3855" gradientUnits="userSpaceOnUse">
<stop stop-color="#BBB9B0"/>
<stop offset="0.259375" stop-color="#62605D"/>
<stop offset="0.420833" stop-color="#C1C0BA"/>
<stop offset="0.69558" stop-color="#62605D"/>
<stop offset="1" stop-color="#BBB9B0"/>
</linearGradient>
<linearGradient id="paint12_linear_24_183" x1="57.2128" y1="158.449" x2="0.262481" y2="144.346" gradientUnits="userSpaceOnUse">
<stop stop-color="#BBB9B0"/>
<stop offset="0.259375" stop-color="#62605D"/>
<stop offset="0.420833" stop-color="#C1C0BA"/>
<stop offset="0.69558" stop-color="#62605D"/>
<stop offset="1" stop-color="#BBB9B0"/>
</linearGradient>
<linearGradient id="paint13_linear_24_183" x1="101.187" y1="131.167" x2="50.6431" y2="96.4807" gradientUnits="userSpaceOnUse">
<stop stop-color="#BBB9B0"/>
<stop offset="0.259375" stop-color="#62605D"/>
<stop offset="0.420833" stop-color="#C1C0BA"/>
<stop offset="0.69558" stop-color="#62605D"/>
<stop offset="1" stop-color="#BBB9B0"/>
</linearGradient>
<linearGradient id="paint14_linear_24_183" x1="56.6351" y1="122.611" x2="37.9175" y2="115.51" gradientUnits="userSpaceOnUse">
<stop stop-color="#BBB9B0"/>
<stop offset="0.259375" stop-color="#62605D"/>
<stop offset="0.420833" stop-color="#C1C0BA"/>
<stop offset="0.69558" stop-color="#62605D"/>
<stop offset="1" stop-color="#BBB9B0"/>
</linearGradient>
<linearGradient id="paint15_linear_24_183" x1="76.8926" y1="181.361" x2="34.1587" y2="170.745" gradientUnits="userSpaceOnUse">
<stop stop-color="#BBB9B0"/>
<stop offset="0.259375" stop-color="#62605D"/>
<stop offset="0.420833" stop-color="#C1C0BA"/>
<stop offset="0.69558" stop-color="#62605D"/>
<stop offset="1" stop-color="#BBB9B0"/>
</linearGradient>
<linearGradient id="paint16_linear_24_183" x1="106.633" y1="156.301" x2="70.6239" y2="125.452" gradientUnits="userSpaceOnUse">
<stop stop-color="#BBB9B0"/>
<stop offset="0.259375" stop-color="#62605D"/>
<stop offset="0.420833" stop-color="#C1C0BA"/>
<stop offset="0.69558" stop-color="#62605D"/>
<stop offset="1" stop-color="#BBB9B0"/>
</linearGradient>
</defs>
</svg>
